<?xml version="1.0" standalone="no"?>
<!DOCTYPE svg PUBLIC "-//W3C//DTD SVG 20010904//EN"
 "http://www.w3.org/TR/2001/REC-SVG-20010904/DTD/svg10.dtd">
<svg version="1.0" xmlns="http://www.w3.org/2000/svg"
 width="1200.000000pt" height="1200.000000pt" viewBox="0 0 1200.000000 1200.000000"
 preserveAspectRatio="xMidYMid meet">
<metadata>
Created by potrace 1.14, written by Peter Selinger 2001-2017
</metadata>
<g transform="translate(0.000000,1200.000000) scale(0.100000,-0.100000)"
fill="#000000" stroke="none">
<path d="M5 11988 c-3 -7 -4 -2706 -3 -5998 l3 -5985 5995 0 5995 0 0 5995 0
5995 -5993 3 c-4789 2 -5994 0 -5997 -10z m6520 -2661 c663 -60 1089 -170
1560 -402 692 -340 1193 -826 1503 -1457 253 -514 361 -1005 362 -1638 1
-1101 -325 -1992 -958 -2618 -238 -234 -507 -420 -865 -596 -443 -217 -916
-352 -1479 -422 -396 -49 -324 -47 -2480 -51 l-2028 -4 0 50 0 50 38 6 c272
44 522 139 689 263 147 109 174 166 217 444 39 255 45 349 58 888 18 740 18
4479 0 4615 -20 150 -57 306 -87 366 -35 69 -149 181 -245 241 -115 72 -347
141 -582 173 l-48 6 0 50 0 49 623 3 c342 1 1279 2 2082 1 1257 -1 1485 -3
1640 -17z"/>
<path d="M4975 9184 c-33 -2 -175 -15 -315 -29 -238 -24 -325 -36 -336 -48 -8
-7 -31 -320 -44 -576 -19 -391 -29 -1458 -29 -3026 0 -1560 6 -1973 34 -2225
44 -405 91 -564 197 -676 142 -151 316 -230 597 -274 280 -43 509 -50 851 -25
312 22 483 54 740 137 792 255 1337 741 1687 1502 248 542 380 1260 360 1961
-12 390 -63 688 -178 1043 -182 555 -457 1012 -843 1398 -310 310 -619 515
-976 647 -193 72 -513 137 -840 172 -148 16 -755 28 -905 19z"/>
</g>
</svg>
